<svg width="41" height="41" fill="none" xmlns="http://www.w3.org/2000/svg"><g clip-path="url(#clip0_7814_2827)"><path d="M20.803 40.608c11.046 0 20-8.954 20-20 0-11.045-8.954-20-20-20s-20 8.955-20 20c0 11.046 8.954 20 20 20z" fill="#0057FF"/><path d="M16.691 13.445a7.231 7.231 0 011.745.186 3.9 3.9 0 011.35.577c.377.274.676.643.866 1.07.218.524.323 1.088.31 1.656a3.185 3.185 0 01-.459 1.774c-.34.504-.81.907-1.361 1.165a3.243 3.243 0 011.834 1.302 4.05 4.05 0 01.608 2.257 4.187 4.187 0 01-.385 1.84c-.245.503-.605.94-1.051 1.278a4.61 4.61 0 01-1.524.73 6.513 6.513 0 01-1.745.236h-6.474v-14.07h6.286zm-.372 5.686c.461.02.915-.118 1.288-.39a1.527 1.527 0 00.508-1.28 1.727 1.727 0 00-.162-.806c-.1-.2-.256-.368-.449-.482a1.694 1.694 0 00-.642-.25 3.82 3.82 0 00-.755-.065h-2.766v3.286h2.976l.002-.013zm.162 5.987a3.39 3.39 0 00.828-.09 1.95 1.95 0 00.694-.3c.206-.142.372-.334.484-.557a2 2 0 00.173-.912 1.879 1.879 0 00-.583-1.552 2.353 2.353 0 00-1.535-.457h-3.201v3.872l3.14-.004zm9.28-.054a2.32 2.32 0 001.72.614c.497.01.984-.14 1.387-.43.327-.213.575-.529.705-.897h2.339a4.605 4.605 0 01-1.721 2.622 4.78 4.78 0 01-2.79.796 5.279 5.279 0 01-2.068-.393 4.413 4.413 0 01-1.559-1.096 5.08 5.08 0 01-.977-1.694 6.401 6.401 0 01-.348-2.166 6.27 6.27 0 01.36-2.126 4.796 4.796 0 014.598-3.262 4.406 4.406 0 012.15.51 4.512 4.512 0 011.51 1.343c.404.584.694 1.24.854 1.931a7.57 7.57 0 01.186 2.27h-6.97a2.774 2.774 0 00.624 1.978zm3.057-5.347a1.937 1.937 0 00-1.489-.558 2.106 2.106 0 00-1.05.236c-.258.14-.485.33-.669.558a2.16 2.16 0 00-.359.716 2.97 2.97 0 00-.123.666h4.315a2.93 2.93 0 00-.614-1.616l-.011-.002zm1.153-5.337h-5.408v1.383h5.408v-1.382z" fill="#fff"/></g><defs><clipPath id="clip0_7814_2827"><path fill="#fff" transform="translate(.803 .608)" d="M0 0h40v40H0z"/></clipPath></defs></svg>