<svg width="41" height="41" fill="none" xmlns="http://www.w3.org/2000/svg"><g clip-path="url(#clip0_7814_2823)"><path d="M20.803 40.608c11.046 0 20-8.954 20-20 0-11.045-8.954-20-20-20s-20 8.955-20 20c0 11.046 8.954 20 20 20z" fill="#1877F2"/><path d="M22.327 22.31h3.349l.638-4.176H22.33v-2.709c0-1.142.558-2.257 2.34-2.257h1.806V9.613a21.897 21.897 0 00-3.215-.283c-3.28 0-5.423 2-5.423 5.622v3.182H14.2v4.177h3.644v10.094h4.488l-.004-10.095z" fill="#fff"/></g><defs><clipPath id="clip0_7814_2823"><path fill="#fff" transform="translate(.803 .608)" d="M0 0h40v40H0z"/></clipPath></defs></svg>