<svg width="41" height="41" fill="none" xmlns="http://www.w3.org/2000/svg"><g clip-path="url(#clip0_7814_2819)"><path d="M20.803 40.608c11.046 0 20-8.954 20-20 0-11.045-8.954-20-20-20s-20 8.955-20 20c0 11.046 8.954 20 20 20z" fill="url(#paint0_radial_7814_2819)"/><path fill-rule="evenodd" clip-rule="evenodd" d="M20.803 10.469c2.753 0 3.1.01 4.18.061a7.414 7.414 0 012.462.47 5.196 5.196 0 012.965 2.966c.295.787.454 1.617.471 2.456.05 1.081.061 1.427.061 4.18 0 2.754-.01 3.1-.06 4.181a7.412 7.412 0 01-.472 2.462 5.194 5.194 0 01-2.965 2.965 7.411 7.411 0 01-2.456.476c-1.08.05-1.427.062-4.18.062-2.754 0-3.1-.011-4.18-.062a7.412 7.412 0 01-2.462-.47A5.193 5.193 0 0111.2 27.25a7.416 7.416 0 01-.476-2.456c-.05-1.08-.061-1.427-.061-4.18 0-2.754.01-3.1.06-4.18a7.415 7.415 0 01.471-2.462 5.196 5.196 0 012.966-2.971 7.416 7.416 0 012.456-.47c1.086-.051 1.432-.062 4.186-.062zm4.093 1.886c-1.068-.048-1.39-.06-4.093-.06-2.703 0-3.029.012-4.093.06a5.631 5.631 0 00-1.887.346 3.364 3.364 0 00-1.927 1.928 5.63 5.63 0 00-.348 1.883c-.048 1.067-.06 1.39-.06 4.093 0 2.703.012 3.028.06 4.093a5.65 5.65 0 00.348 1.89 3.363 3.363 0 001.927 1.927 5.63 5.63 0 001.883.348c1.068.049 1.39.06 4.093.06 2.704 0 3.03-.011 4.093-.06a5.632 5.632 0 001.89-.348 3.363 3.363 0 001.928-1.927 5.63 5.63 0 00.348-1.883c.048-1.068.06-1.39.06-4.093 0-2.703-.012-3.029-.06-4.093a5.631 5.631 0 00-.348-1.89 3.363 3.363 0 00-1.928-1.928 5.629 5.629 0 00-1.882-.346h-.004zM20.803 23.99a3.38 3.38 0 100-6.76 3.38 3.38 0 000 6.76zm0-8.588a5.21 5.21 0 110 10.418 5.21 5.21 0 010-10.418zm6.629-.205a1.217 1.217 0 11-2.434 0 1.217 1.217 0 012.434 0z" fill="#fff"/></g><defs><radialGradient id="paint0_radial_7814_2819" cx="0" cy="0" r="1" gradientUnits="userSpaceOnUse" gradientTransform="rotate(-38.74 61.944 4.203) scale(56.787 36.3437)"><stop stop-color="#F9D27A"/><stop offset=".05" stop-color="#F8C871"/><stop offset=".14" stop-color="#F5AD58"/><stop offset=".25" stop-color="#EF8130"/><stop offset=".26" stop-color="#EF7E2D"/><stop offset=".36" stop-color="#F04C3E"/><stop offset=".38" stop-color="#ED4A45"/><stop offset=".49" stop-color="#D43E79"/><stop offset=".55" stop-color="#CA398E"/><stop offset=".7" stop-color="#8D3CC8"/><stop offset=".9" stop-color="#304DF0"/></radialGradient><clipPath id="clip0_7814_2819"><path fill="#fff" transform="translate(.803 .608)" d="M0 0h40v40H0z"/></clipPath></defs></svg>