<svg width="41" height="41" fill="none" xmlns="http://www.w3.org/2000/svg"><g clip-path="url(#clip0_7814_2785)"><path d="M20.803 40.608c11.046 0 20-8.954 20-20 0-11.045-8.954-20-20-20s-20 8.955-20 20c0 11.046 8.954 20 20 20z" fill="#FC2C38"/><path d="M31.608 20.624c0 3.676-1.72 5.395-3.882 5.395a3.51 3.51 0 01-2.977-1.643 5.364 5.364 0 111.542-3.752v1.752c0 .888.625 1.513 1.435 1.513.963 0 1.745-.81 1.745-3.26a8.596 8.596 0 10-3.961 7.195l1.406 1.616a10.59 10.59 0 01-6.02 1.846 10.689 10.689 0 1110.712-10.662zm-10.686 3.26a3.26 3.26 0 100-6.52 3.26 3.26 0 000 6.52z" fill="#fff"/></g><defs><clipPath id="clip0_7814_2785"><path fill="#fff" transform="translate(.803 .608)" d="M0 0h40v40H0z"/></clipPath></defs></svg>