<svg width="41" height="41" fill="none" xmlns="http://www.w3.org/2000/svg"><g clip-path="url(#clip0_7814_2815)"><path d="M20.803 40.608c11.046 0 20-8.954 20-20 0-11.045-8.954-20-20-20s-20 8.955-20 20c0 11.046 8.954 20 20 20z" fill="#E60023"/><path d="M21.112 11.517c-5.557 0-8.448 3.706-8.448 7.78 0 1.89.963 4.225 2.593 4.966.223.148.372.074.372-.15l.372-1.406c.037-.186.037-.297-.074-.372a4.895 4.895 0 01-.964-2.965c0-2.853 2.149-5.558 5.78-5.558 3.187 0 5.41 2.112 5.41 5.187 0 3.483-1.778 5.93-4.076 5.93a1.972 1.972 0 01-1.966-2.367c.372-1.52 1.116-3.112 1.116-4.223 0-1.038-.519-1.86-1.631-1.86-1.26 0-2.37 1.333-2.37 3.112a4.652 4.652 0 00.371 1.926L16.11 27.89c-.221 1.148-.11 2.816 0 3.815.017.175.104.48.327.523a.496.496 0 00.471-.258c.558-.892 1.355-2.352 1.648-3.452l.89-3.075c.407.817 1.63 1.488 2.89 1.488 3.927 0 6.669-3.557 6.669-8 0-4.228-3.446-7.415-7.892-7.415z" fill="#fff"/></g><defs><clipPath id="clip0_7814_2815"><path fill="#fff" transform="translate(.803 .608)" d="M0 0h40v40H0z"/></clipPath></defs></svg>