<svg width="41" height="41" fill="none" xmlns="http://www.w3.org/2000/svg"><g clip-path="url(#clip0_7814_2795)"><path d="M20.803 40.608c11.046 0 20-8.954 20-20 0-11.045-8.954-20-20-20s-20 8.955-20 20c0 11.046 8.954 20 20 20z" fill="url(#paint0_linear_7814_2795)"/><path fill-rule="evenodd" clip-rule="evenodd" d="M9.977 20.265c5.816-2.534 9.694-4.205 11.633-5.012 5.54-2.304 6.698-2.704 7.442-2.719a1.32 1.32 0 01.774.233c.16.138.261.33.285.54.04.26.051.524.033.787-.3 3.162-1.6 10.807-2.26 14.34-.28 1.488-.83 1.996-1.364 2.046-1.157.107-2.046-.766-3.163-1.5-1.756-1.152-2.747-1.861-4.452-2.992-1.97-1.303-.692-2.012.43-3.176.294-.306 5.395-4.95 5.496-5.37a.406.406 0 00-.093-.353.465.465 0 00-.413-.04c-.175.04-2.98 1.893-8.413 5.562-.796.547-1.518.813-2.164.8-.712-.017-2.082-.404-3.101-.745-1.249-.405-2.233-.619-2.155-1.302.046-.357.541-.724 1.485-1.1z" fill="#fff"/></g><defs><linearGradient id="paint0_linear_7814_2795" x1=".803" y1="20.608" x2="40.803" y2="20.608" gradientUnits="userSpaceOnUse"><stop stop-color="#2AABEE"/><stop offset="1" stop-color="#229ED9"/></linearGradient><clipPath id="clip0_7814_2795"><path fill="#fff" transform="translate(.803 .608)" d="M0 0h40v40H0z"/></clipPath></defs></svg>