<svg width="41" height="41" fill="none" xmlns="http://www.w3.org/2000/svg"><g clip-path="url(#clip0_7814_2851)"><path d="M20.803 40.608c11.046 0 20-8.954 20-20 0-11.045-8.954-20-20-20s-20 8.955-20 20c0 11.046 8.954 20 20 20z" fill="red"/><path d="M30.669 15.526a2.593 2.593 0 00-1.832-1.833c-1.615-.433-8.1-.433-8.1-.433s-6.483 0-8.1.433a2.604 2.604 0 00-1.832 1.833c-.434 1.617-.434 4.99-.434 4.99s0 3.373.434 4.99a2.605 2.605 0 001.832 1.832c1.617.433 8.1.433 8.1.433s6.483 0 8.1-.433a2.593 2.593 0 001.832-1.833c.433-1.616.433-4.99.433-4.99s0-3.372-.433-4.99zm-12.006 8.098v-6.217l5.396 3.109-5.396 3.108z" fill="#fff"/></g><defs><clipPath id="clip0_7814_2851"><path fill="#fff" transform="translate(.803 .608)" d="M0 0h40v40H0z"/></clipPath></defs></svg>